HIERARCHY
ROOT Hips
{
  OFFSET 0.0000 0.0000 0.0000
  CHANNELS 6 Xposition Yposition Zposition Zrotation Xrotation Yrotation
  JOINT Chest
  {
    OFFSET -0.1728 10.2870 0.1254
    CHANNELS 3 Zrotation Xrotation Yrotation
    JOINT Chest2
    {
      OFFSET 0.3229 15.8173 -2.6440
      CHANNELS 3 Zrotation Xrotation Yrotation
      JOINT LeftCollar
      {
        OFFSET -0.0683 16.8828 0.2989
        CHANNELS 3 Zrotation Xrotation Yrotation
        JOINT LeftShoulder
        {
          OFFSET 16.0110 -3.0750 2.0528
          CHANNELS 3 Zrotation Xrotation Yrotation
          JOINT LeftElbow
          {
            OFFSET 2.6153 -25.4187 1.7231
            CHANNELS 3 Zrotation Xrotation Yrotation
            JOINT LeftWrist
            {
              OFFSET 2.3595 -22.4741 1.0488
              CHANNELS 3 Zrotation Xrotation Yrotation
              End Site
              {
                  OFFSET 1.4871 -13.9919 1.1523
              }
            }
          }
        }
      }
      JOINT RightCollar
      {
        OFFSET -0.0683 16.8828 0.2989
        CHANNELS 3 Zrotation Xrotation Yrotation
        JOINT RightShoulder
        {
          OFFSET -16.3743 -2.4390 2.0841
          CHANNELS 3 Zrotation Xrotation Yrotation
          JOINT RightElbow
          {
            OFFSET -2.6865 -25.0857 1.2959
            CHANNELS 3 Zrotation Xrotation Yrotation
            JOINT RightWrist
            {
              OFFSET -2.3810 -22.8348 1.0329
              CHANNELS 3 Zrotation Xrotation Yrotation
              End Site
              {
                  OFFSET -1.4652 -14.7234 1.0705
              }
            }
          }
        }
      }
      JOINT Neck
      {
        OFFSET -0.0683 16.8828 0.2989
        CHANNELS 3 Zrotation Xrotation Yrotation
        JOINT Head
        {
          OFFSET 0.1300 11.4121 4.7143
          CHANNELS 3 Zrotation Xrotation Yrotation
          End Site
          {
              OFFSET 0.0452 18.0438 0.3379
          }
        }
      }
    }
  }
  JOINT LeftHip
  {
    OFFSET 9.3186 -0.0408 3.5432
    CHANNELS 3 Zrotation Xrotation Yrotation
    JOINT LeftKnee
    {
      OFFSET -0.5435 -48.8357 0.3144
      CHANNELS 3 Zrotation Xrotation Yrotation
      JOINT LeftAnkle
      {
        OFFSET 0.2027 -38.4920 -4.2946
        CHANNELS 3 Zrotation Xrotation Yrotation
        End Site
        {
            OFFSET 1.1879 -7.4484 17.8063
        }
      }
    }
  }
  JOINT RightHip
  {
    OFFSET -10.0712 -0.0749 3.1483
    CHANNELS 3 Zrotation Xrotation Yrotation
    JOINT RightKnee
    {
      OFFSET 0.3157 -48.5179 0.1055
      CHANNELS 3 Zrotation Xrotation Yrotation
      JOINT RightAnkle
      {
        OFFSET -1.1248 -38.4399 -3.4305
        CHANNELS 3 Zrotation Xrotation Yrotation
        End Site
        {
            OFFSET -1.3336 -7.3741 17.3830
        }
      }
    }
  }
}
MOTION
Frames:	30
Frame Time:	0.041667
99.6199 94.0327 48.5375 -5.43 -1.83 6.81 4.03 9.50 -1.71 4.06 9.48 -1.67 -0.18 -0.70 0.26 26.23 -5.25 -53.03 9.28 -23.30 -2.31 -6.96 6.44 9.76 -0.01 -0.80 0.01 -31.24 -18.82 82.74 -13.75 -17.58 3.34 1.79 16.27 -58.79 1.83 -11.31 -35.74 6.11 -5.32 -35.14 3.55 -18.84 -6.90 -3.02 64.67 5.06 0.02 7.32 -1.63 11.72 0.25 -4.68 0.01 16.30 -0.90 -6.13 -14.24 0.98 
100.0663 94.3494 55.9927 -2.54 -1.34 6.21 1.80 9.63 -0.21 1.84 9.60 -0.18 -0.18 -0.70 0.26 27.60 -2.13 -50.64 9.29 -23.04 -2.30 -7.54 6.60 8.69 -0.01 -0.80 0.01 -30.79 -19.45 77.10 -13.58 -21.28 3.36 -4.00 19.30 -52.87 2.58 -11.21 -36.78 6.95 -5.30 -36.17 -0.90 -23.83 -9.34 -1.85 57.12 3.71 0.24 -0.46 0.86 9.15 6.20 -4.52 0.02 13.46 -0.73 -4.83 -13.89 1.41 
100.5288 94.3810 63.7243 0.17 -0.95 5.87 -0.28 9.42 0.89 -0.25 9.39 0.92 -0.18 -0.70 0.26 29.16 0.41 -47.55 9.27 -23.64 -2.32 -7.26 7.07 6.83 -0.01 -0.80 0.01 -30.30 -18.61 72.87 -13.41 -24.96 3.40 -9.72 21.72 -49.37 3.06 -10.79 -37.70 7.52 -4.94 -37.11 -4.70 -26.17 -11.16 -0.86 45.34 2.44 0.28 -3.52 0.94 6.59 10.15 -4.07 0.08 14.93 -0.66 -3.30 -11.88 1.10 
101.0081 93.9855 71.7502 2.02 -0.75 5.94 -1.69 8.82 1.16 -1.65 8.79 1.18 -0.18 -0.70 0.26 30.64 2.19 -44.48 9.24 -24.72 -2.37 -6.39 7.86 4.65 -0.01 -0.80 0.01 -29.48 -16.45 72.02 -13.31 -26.96 3.43 -13.45 23.30 -49.07 3.14 -9.89 -38.17 7.65 -4.08 -37.65 -6.95 -25.99 -11.49 -0.35 34.05 1.63 0.21 -3.48 -1.64 4.40 10.99 -4.46 0.23 22.87 -0.80 -1.77 -7.40 0.74 
101.5656 93.3040 80.0143 2.92 -0.98 6.15 -2.26 7.97 0.46 -2.22 7.94 0.48 -0.18 -0.70 0.26 31.72 3.42 -41.23 9.18 -26.40 -2.45 -4.64 8.81 3.00 -0.01 -0.80 0.01 -28.34 -13.52 74.92 -13.36 -26.12 3.41 -13.38 23.81 -52.41 2.73 -8.46 -37.91 7.20 -2.64 -37.50 -7.59 -23.58 -9.94 -0.17 27.59 1.26 0.25 -3.53 -5.35 2.27 8.59 -6.27 0.52 35.84 -1.19 -0.54 -0.49 0.25 
102.2207 92.8484 88.3372 3.14 -1.68 5.72 -2.11 7.04 -0.76 -2.07 7.01 -0.74 -0.18 -0.70 0.26 32.14 4.38 -37.37 9.10 -28.88 -2.57 -1.71 9.62 2.46 -0.01 -0.80 0.01 -27.54 -10.24 79.58 -13.50 -23.15 3.38 -9.49 23.19 -58.92 1.76 -6.77 -36.86 6.12 -0.88 -36.57 -7.18 -19.36 -6.88 -0.15 26.54 1.21 0.29 -5.47 -8.20 -0.20 3.59 -8.38 1.05 49.93 -1.88 0.06 5.38 -1.55 
102.8618 93.2173 96.4768 2.90 -2.58 3.99 -1.42 6.22 -1.91 -1.38 6.19 -1.88 -0.18 -0.70 0.26 31.93 5.11 -33.01 8.97 -32.16 -2.74 1.97 10.26 2.56 -0.01 -0.80 0.01 -27.75 -7.09 83.02 -13.64 -20.10 3.35 -4.33 22.03 -65.79 0.43 -5.35 -35.30 4.64 0.66 -35.12 -6.24 -14.18 -3.39 -0.19 28.18 1.29 0.25 -7.34 -9.20 -2.32 -3.00 -9.21 1.78 60.09 -2.76 0.24 6.03 -4.62 
103.2815 94.5754 104.2493 2.16 -3.31 1.62 -0.35 5.69 -2.77 -0.31 5.66 -2.74 -0.18 -0.70 0.26 31.65 5.45 -28.67 8.79 -36.08 -2.96 5.39 10.94 2.27 -0.01 -0.80 0.01 -28.94 -4.73 83.76 -13.71 -18.50 3.34 -0.53 21.58 -69.83 -0.80 -4.68 -33.83 3.26 1.43 -33.69 -4.97 -9.68 -0.72 -0.26 30.92 1.45 0.24 -5.69 -8.97 -2.78 -9.39 -8.31 1.85 60.71 -2.84 0.13 1.63 -6.92 
103.2880 96.3794 111.5744 1.05 -3.57 0.22 0.79 5.53 -3.49 0.83 5.50 -3.46 -0.18 -0.70 0.26 32.18 5.17 -24.77 8.57 -40.22 -3.23 7.82 11.74 1.23 -0.01 -0.80 0.01 -30.33 -3.53 82.66 -13.72 -18.27 3.34 0.99 22.17 -70.39 -1.45 -4.99 -33.00 2.53 1.17 -32.84 -3.36 -8.06 0.15 -0.43 36.23 1.77 0.24 0.54 -8.60 -1.28 -13.39 -6.37 1.03 49.61 -1.86 0.01 -3.04 -6.67 
102.8549 97.5817 118.4518 0.01 -3.18 0.69 1.63 5.60 -3.99 1.67 5.57 -3.96 -0.18 -0.70 0.26 34.02 4.28 -21.33 8.35 -43.85 -3.49 9.62 12.65 -0.04 -0.01 -0.80 0.01 -31.42 -3.53 81.22 -13.71 -18.51 3.34 0.92 22.77 -69.70 -1.45 -6.14 -33.09 2.54 0.03 -32.86 -1.59 -11.06 -0.58 -0.87 45.54 2.45 0.27 8.27 -8.05 0.82 -14.59 -4.35 0.46 33.11 -1.02 0.10 -3.82 -4.40 
102.2048 97.3657 124.9405 -0.67 -2.08 1.75 2.00 5.66 -3.78 2.04 5.63 -3.75 -0.18 -0.70 0.26 36.54 3.14 -18.34 8.20 -45.95 -3.66 11.89 13.66 -1.36 -0.01 -0.80 0.01 -32.31 -5.13 80.70 -13.71 -18.37 3.34 0.51 22.60 -70.24 -1.25 -7.77 -33.93 2.82 -1.66 -33.59 0.10 -18.28 -1.25 -1.84 57.01 3.70 0.24 12.82 -6.39 2.38 -15.30 -2.62 0.24 19.69 -0.55 0.14 -2.15 -1.80 
101.6643 95.7530 131.1703 -1.09 -0.50 1.61 2.11 5.68 -2.58 2.15 5.65 -2.55 -0.18 -0.70 0.26 38.42 2.33 -16.31 8.23 -45.50 -3.63 15.30 14.70 -2.79 -0.01 -0.80 0.01 -33.53 -8.43 81.49 -13.75 -17.64 3.34 0.64 21.98 -72.18 -1.32 -9.49 -35.12 2.88 -3.46 -34.64 2.05 -27.40 -0.37 -3.34 66.11 5.41 0.13 12.10 -3.65 3.36 -17.76 -1.19 0.22 17.87 -0.50 0.03 -2.63 0.49 
101.4259 93.5468 137.3579 -1.45 0.95 0.10 2.25 5.83 -0.88 2.29 5.80 -0.85 -0.18 -0.70 0.26 38.64 2.21 -16.26 8.48 -41.84 -3.34 18.42 15.46 -3.39 -0.01 -0.80 0.01 -34.76 -13.04 82.35 -13.79 -16.57 3.33 1.41 21.49 -73.76 -1.67 -10.96 -36.25 2.65 -5.01 -35.64 4.49 -35.36 1.84 -3.92 68.37 6.04 0.16 7.81 -1.27 4.22 -21.10 -0.20 0.32 26.22 -0.77 -0.01 -7.27 2.45 
101.4382 91.7664 143.7683 -1.85 1.61 -1.25 2.47 6.31 0.41 2.51 6.29 0.44 -0.18 -0.70 0.26 37.16 2.75 -18.69 8.84 -35.16 -2.91 18.01 15.45 -0.92 -0.01 -0.80 0.01 -35.20 -18.12 81.90 -13.82 -15.83 3.33 2.22 21.43 -73.56 -1.85 -11.94 -37.08 2.56 -6.04 -36.39 6.32 -39.67 3.11 -2.42 61.32 4.38 0.26 3.50 -0.39 4.90 -22.17 0.04 0.53 36.35 -1.16 0.10 -13.82 3.67 
101.5441 90.9591 150.5959 -2.25 1.35 -1.36 2.62 7.05 0.97 2.65 7.02 1.00 -0.18 -0.70 0.26 34.53 3.73 -22.34 9.16 -26.98 -2.48 12.33 14.12 5.00 -0.01 -0.80 0.01 -34.11 -22.39 79.21 -13.81 -16.17 3.33 2.15 21.53 -72.00 -1.50 -12.44 -37.66 2.97 -6.58 -36.92 6.42 -39.36 1.83 -0.86 45.42 2.44 0.27 1.61 -0.61 5.16 -19.14 -0.46 0.69 41.43 -1.39 0.20 -18.95 3.79 
101.6814 91.0291 157.8793 -2.52 0.75 -0.68 2.54 7.72 1.24 2.57 7.70 1.27 -0.18 -0.70 0.26 31.22 5.07 -25.13 9.39 -19.41 -2.15 3.43 11.46 11.13 -0.01 -0.80 0.01 -32.15 -25.08 75.55 -13.73 -17.89 3.34 0.70 21.47 -70.07 -0.67 -12.70 -38.19 3.85 -6.88 -37.42 5.63 -35.53 -0.43 -0.11 24.57 1.11 0.23 2.31 -0.81 5.15 -12.98 -1.08 0.66 40.48 -1.34 0.21 -21.40 3.19 
101.9160 91.5371 165.5138 -2.48 0.47 -0.04 2.17 8.09 1.78 2.20 8.07 1.81 -0.18 -0.70 0.26 27.73 6.73 -25.74 9.52 -14.09 -1.94 -5.19 9.10 13.69 -0.01 -0.80 0.01 -30.33 -26.50 72.89 -13.61 -20.64 3.36 -1.86 21.32 -67.52 0.20 -13.07 -38.85 4.80 -7.30 -38.05 4.89 -31.01 -1.47 0.10 6.03 0.26 0.18 3.84 -0.76 4.92 -5.63 -1.25 0.52 35.89 -1.14 0.18 -21.39 2.49 
102.3697 92.0438 173.3657 -1.95 0.61 0.41 1.51 8.21 2.59 1.54 8.19 2.63 -0.18 -0.70 0.26 24.75 8.54 -24.35 9.59 -11.04 -1.83 -11.68 8.50 12.37 -0.01 -0.80 0.01 -29.38 -27.39 72.23 -13.47 -23.73 3.39 -4.96 21.62 -62.86 0.79 -13.74 -39.66 5.47 -8.03 -38.79 3.76 -28.54 -1.11 0.10 -4.81 -0.20 0.31 3.86 -1.29 4.28 1.60 -0.88 0.40 30.34 -0.92 0.15 -19.49 1.84 
103.1245 92.2566 181.4673 -0.85 0.64 0.97 0.60 8.29 3.31 0.63 8.27 3.34 -0.18 -0.70 0.26 22.75 10.33 -21.50 9.62 -9.27 -1.77 -16.26 9.51 9.71 -0.01 -0.80 0.01 -29.25 -27.99 72.61 -13.31 -27.00 3.43 -8.43 22.79 -55.80 1.04 -14.42 -40.44 5.80 -8.77 -39.50 1.58 -28.43 -0.79 0.13 -3.47 -0.14 0.78 2.07 -2.92 3.02 8.23 -0.46 0.32 26.20 -0.77 0.09 -15.78 1.11 
104.1838 92.0529 189.9475 0.73 0.16 1.68 -0.49 8.34 3.66 -0.46 8.32 3.69 -0.18 -0.70 0.26 21.69 11.99 -17.98 9.65 -7.93 -1.72 -19.56 11.45 7.62 -0.01 -0.80 0.01 -29.22 -27.51 72.44 -13.14 -30.43 3.48 -12.18 24.44 -49.07 1.10 -14.71 -40.91 5.91 -9.10 -39.94 -1.50 -28.74 -1.32 0.17 5.21 0.25 1.44 0.75 -4.70 1.10 13.45 -0.52 0.32 26.08 -0.76 0.04 -9.35 0.39 
105.4373 91.6670 198.5859 2.69 -0.44 2.38 -1.77 8.18 3.49 -1.74 8.15 3.52 -0.18 -0.70 0.26 21.25 13.20 -15.27 9.66 -6.97 -1.69 -21.63 13.72 5.65 -0.01 -0.80 0.01 -28.28 -25.45 71.55 -13.00 -33.01 3.53 -14.87 25.65 -46.80 1.19 -14.59 -40.88 5.99 -8.97 -39.92 -5.05 -27.83 -2.70 0.14 14.49 0.67 2.15 1.32 -5.26 -1.43 15.06 -0.95 0.43 32.07 -0.98 0.07 0.64 0.11 
106.6116 91.7483 206.7359 4.89 -0.20 3.11 -3.22 7.76 2.80 -3.19 7.73 2.83 -0.18 -0.70 0.26 21.39 13.13 -15.62 9.66 -7.04 -1.69 -22.65 15.48 3.70 -0.01 -0.80 0.01 -25.94 -22.78 72.40 -13.04 -32.39 3.52 -14.31 26.00 -49.81 1.34 -14.58 -40.35 6.10 -8.92 -39.40 -8.68 -25.64 -4.64 0.11 19.81 0.93 2.82 1.94 -4.44 -4.19 11.11 -1.18 0.76 43.36 -1.49 0.14 11.19 0.31 
107.4658 92.7851 214.0424 6.78 1.01 3.46 -4.53 7.38 1.87 -4.50 7.35 1.89 -0.18 -0.70 0.26 22.22 10.96 -20.41 9.63 -8.60 -1.74 -22.85 15.75 3.54 -0.01 -0.80 0.01 -23.28 -20.67 76.84 -13.26 -28.12 3.44 -9.96 25.07 -54.10 1.36 -15.14 -39.53 6.04 -9.42 -38.55 -11.38 -21.87 -6.18 0.15 19.33 0.92 3.36 1.20 -3.30 -6.18 2.24 -0.75 1.39 55.47 -2.31 0.17 16.60 0.87 
108.0176 94.4546 220.7543 7.69 2.41 2.95 -5.18 7.37 1.05 -5.14 7.33 1.07 -0.18 -0.70 0.26 23.51 6.59 -29.00 9.58 -11.51 -1.85 -21.54 13.93 6.23 -0.01 -0.80 0.01 -21.97 -19.02 83.55 -13.53 -22.47 3.37 -3.53 22.60 -56.05 1.05 -16.32 -38.57 5.66 -10.52 -37.52 -12.12 -16.31 -6.39 0.14 13.93 0.80 3.80 0.20 -2.49 -6.57 -8.92 0.16 2.21 63.78 -3.24 0.14 14.71 1.46 
108.4057 95.8410 227.2544 7.27 3.43 2.02 -4.77 7.73 0.20 -4.74 7.70 0.22 -0.18 -0.70 0.26 24.81 0.73 -38.12 9.50 -15.26 -1.98 -17.56 10.78 10.07 -0.01 -0.80 0.01 -22.55 -17.41 89.43 -13.74 -17.77 3.34 2.66 19.16 -56.17 0.46 -17.79 -37.50 4.98 -11.91 -36.36 -11.23 -10.53 -5.63 0.04 8.29 0.86 4.31 -0.78 -2.27 -5.62 -19.78 0.86 2.41 65.23 -3.46 0.08 8.81 2.30 
108.6824 96.3606 233.7360 5.87 4.19 2.27 -3.53 8.30 -1.28 -3.49 8.26 -1.25 -0.18 -0.70 0.26 26.18 -5.78 -44.20 9.38 -19.78 -2.16 -11.17 8.23 12.18 -0.01 -0.80 0.01 -24.57 -15.63 92.68 -13.88 -14.63 3.32 7.24 15.85 -57.33 0.04 -19.23 -36.33 4.46 -13.26 -35.11 -9.66 -5.86 -4.89 0.01 5.52 0.99 4.72 -3.09 -3.11 -4.39 -28.49 0.21 1.70 59.17 -2.67 0.04 3.09 3.62 
108.8339 96.0535 240.3193 4.34 4.72 4.56 -2.14 8.94 -3.58 -2.10 8.90 -3.56 -0.18 -0.70 0.26 28.40 -12.29 -44.82 9.23 -25.07 -2.39 -4.21 7.19 11.25 -0.01 -0.80 0.01 -26.98 -13.53 93.12 -13.97 -12.43 3.32 10.40 13.53 -61.21 0.18 -20.30 -35.20 4.51 -14.25 -33.94 -7.99 -1.53 -4.51 0.06 4.41 0.75 4.66 -6.99 -5.11 -4.51 -33.63 -1.94 0.86 45.89 -1.63 0.07 -0.84 4.64 
108.8839 95.0446 247.2748 3.59 4.54 8.13 -1.25 9.67 -6.17 -1.21 9.63 -6.14 -0.18 -0.70 0.26 31.58 -18.10 -40.50 9.01 -31.20 -2.69 1.42 7.45 7.86 -0.01 -0.80 0.01 -28.86 -10.97 91.94 -14.05 -10.61 3.32 13.36 12.36 -66.98 0.75 -20.63 -34.37 5.00 -14.52 -33.12 -6.48 3.47 -4.36 -0.08 3.81 0.21 4.32 -11.44 -7.94 -6.46 -33.86 -5.17 0.32 26.02 -0.76 0.12 -2.32 4.62 
108.8637 93.5259 254.9727 3.72 3.28 11.53 -0.95 10.47 -8.13 -0.91 10.43 -8.11 -0.18 -0.70 0.26 34.41 -22.30 -33.70 8.69 -38.13 -3.09 5.01 8.76 2.76 -0.01 -0.80 0.01 -30.19 -7.84 90.30 -14.12 -9.04 3.32 17.11 11.87 -72.12 1.21 -20.09 -34.00 5.41 -13.95 -32.80 -4.99 9.50 -4.34 -0.26 4.14 -0.14 4.11 -15.04 -10.63 -8.57 -29.84 -9.65 0.13 5.62 -0.16 -0.01 -0.69 4.57 
108.6689 91.9706 263.5281 3.42 0.90 13.17 -0.48 11.19 -8.81 -0.44 11.15 -8.79 -0.18 -0.70 0.26 35.17 -24.24 -27.09 8.26 -45.10 -3.59 7.59 10.43 -2.99 -0.01 -0.80 0.01 -31.60 -4.76 88.54 -14.16 -8.01 3.32 21.10 11.49 -73.87 1.11 -18.91 -33.91 5.28 -12.77 -32.80 -2.75 15.81 -4.41 -0.22 6.91 -0.01 3.47 -16.33 -11.56 -8.06 -25.27 -13.70 0.09 -7.28 0.15 -0.64 2.32 5.07 
